<?xml version="1.0" encoding="utf-8"?>
<!-- Generator: Adobe Illustrator 27.0.0, SVG Export Plug-In . SVG Version: 6.00 Build 0)  -->
<svg version="1.1" id="Layer_4" xmlns="http://www.w3.org/2000/svg" xmlns:xlink="http://www.w3.org/1999/xlink" x="0px" y="0px"
	 viewBox="0 0 384 384" style="enable-background:new 0 0 384 384;" xml:space="preserve">
<style type="text/css">
	.st0{fill:#150000;}
	.st1{fill:#231F20;}
	.st2{fill:#71CBD0;}
	.st3{fill:#FCFFDF;}
	.st4{fill:#F9FFC9;}
</style>
<g>
	<path class="st0" d="M209.06,237.36c-8.52,0.66-17.08,0.64-25.6-0.03c-6.1-0.48-12.17-1.31-18.28-1.71
		c-5.42-0.35-10.86-0.37-16.29-0.39c-17.32-0.06-34.65-0.12-51.97-0.19c-1.04,0-2.18,0.03-2.95,0.72c-0.66,0.59-0.89,1.52-1.06,2.39
		c-1.01,4.92-1.64,9.93-1.88,14.95c-0.11,2.23-0.02,4.76,1.65,6.25c2.58,2.31,7.56,0.82,9.37,3.77c0.52,0.84,0.62,1.87,0.71,2.85
		c0.48,5.23,0.96,10.46,1.45,15.69c0.39,4.28,0.79,8.58,1.88,12.74c2.41,9.22,8.16,17.34,15.28,23.69
		c7.11,6.35,15.55,11.04,24.24,14.97c10.05,4.55,20.7,8.19,31.72,8.73c11.02,0.54,22.51-2.28,30.92-9.42
		c7.92-6.73,12.47-16.6,15.68-26.48c6.32-19.42,8.42-40.21,6.12-60.51c-0.22-1.93-0.54-3.99-1.88-5.39
		c-1.18-1.24-2.88-2.07-4.59-2.13c-6.68-0.25-3.59-0.21-10.35-0.34L209.06,237.36z"/>
	<g>
		<path class="st1" d="M209.06,234.86c-8.19,0.62-16.42,0.64-24.62,0.04c-8.08-0.59-16.09-1.75-24.19-2.02
			c-8.11-0.27-16.24-0.17-24.35-0.2c-8.16-0.03-16.32-0.06-24.49-0.09c-4.16-0.01-8.33-0.03-12.49-0.04
			c-1.67-0.01-3.46-0.17-5.05,0.43c-2,0.76-2.94,2.51-3.38,4.5c-0.84,3.85-1.36,7.8-1.71,11.73c-0.29,3.32-0.88,7.28,0.87,10.33
			c1.53,2.67,4.35,3.39,7.17,3.84c1.08,0.17,2.27,0.26,3,0.88c-0.25-0.21,0.19,0.35,0.06,0.12c0.17,0.31,0.25,0.64,0.31,0.98
			c0.17,1,0.2,2.05,0.29,3.06c0.73,7.92,1.04,16.03,2.56,23.85c2.73,14.07,12.44,25.42,23.97,33.39c5.94,4.11,12.41,7.4,19.01,10.3
			c6.94,3.05,14.09,5.67,21.55,7.11c13.54,2.62,28.64,1.35,40.05-7.05c11.27-8.3,16.68-21.8,20.36-34.85
			c4.16-14.76,5.99-30.22,5.37-45.54c-0.16-3.9-0.42-7.83-0.97-11.7c-0.53-3.75-2.48-6.8-6.18-8.1c-2.29-0.8-5-0.57-7.41-0.68
			c-1.87-0.08-3.74-0.09-5.61-0.14C211.8,234.96,210.43,234.91,209.06,234.86c-3.22-0.11-3.21,4.89,0,5
			c3.15,0.11,6.3,0.14,9.45,0.27c0.71,0.03,1.43,0.07,2.14,0.1c1.36,0.06,2.94-0.13,4.21,0.42c2.75,1.18,2.69,4.49,2.93,7.05
			c1.41,14.52,0.58,29.26-2.5,43.52c-1.48,6.83-3.4,13.62-5.97,20.13c-2.26,5.71-5.23,11.31-9.38,15.89
			c-8.48,9.35-21.24,12.79-33.54,12c-7.12-0.46-14.09-2.3-20.77-4.74c-6.55-2.39-12.94-5.32-19.01-8.74
			c-11.16-6.28-21.77-15.18-26.61-27.38c-2.67-6.75-3.06-13.98-3.72-21.13c-0.35-3.76-0.66-7.52-1.04-11.27
			c-0.19-1.85-0.47-3.66-1.79-5.09c-0.93-1.01-2.21-1.63-3.52-1.98c-1.09-0.29-2.23-0.39-3.34-0.6c-0.97-0.19-1.94-0.36-2.45-1
			c-0.67-0.83-0.66-2.13-0.66-3.14c0.01-1.97,0.19-3.96,0.39-5.92c0.17-1.71,0.38-3.42,0.66-5.12c0.14-0.88,0.29-1.76,0.46-2.64
			c0.15-0.82,0.18-2.06,0.61-2.79c0.16-0.26-0.18,0.05-0.09-0.02c0.16-0.11,0.53-0.11,0.71-0.13c0.72-0.07,1.48-0.01,2.2,0
			c2.08,0.01,4.16,0.01,6.25,0.02c15.56,0.06,31.13,0.09,46.69,0.17c7.78,0.04,15.47,0.43,23.21,1.23
			c7.71,0.8,15.41,1.43,23.17,1.37c3.78-0.03,7.55-0.19,11.32-0.48c1.35-0.1,2.5-1.08,2.5-2.5
			C211.56,236.09,210.42,234.76,209.06,234.86z"/>
	</g>
</g>
<g>
	<path class="st2" d="M118.61,245.21c-0.09,0.15-0.16,0.3-0.2,0.47c-2.02,8.09-1.24,18.62,0.02,26.84
		c1.58,10.32,1.61,14.22,5.3,21.76c2.2,4.49,7.8,10.79,11.23,14.43c4.3,4.55,9.31,9,15.06,11.49c5.75,2.48,10.46,2.89,16.47,4.66
		c5.04,1.48,13.07,0.64,18.22-0.37c7.67-1.51,13.52-7.67,18.14-13.97c10.87-14.82,18.16-33.15,16.02-51.41
		c-0.22-1.92-0.57-3.89-1.57-5.54c-2.29-3.78-7.19-4.87-11.57-5.45c-28.33-3.72-57.2-0.38-85.57-3.64
		C119.53,244.39,118.93,244.68,118.61,245.21L118.61,245.21z"/>
	<g>
		<path class="st1" d="M116.45,243.95c-1.15,2.22-1.28,5.21-1.52,7.66c-0.25,2.61-0.3,5.25-0.23,7.87
			c0.14,5.28,0.85,10.5,1.62,15.72c0.61,4.17,1.05,8.4,2.17,12.47c1.09,3.97,2.79,7.88,5.12,11.27c2.65,3.87,5.76,7.43,8.95,10.85
			c3.54,3.79,7.36,7.39,11.75,10.18c4.66,2.96,9.89,4.47,15.23,5.7c2.53,0.58,5.03,1.38,7.57,1.9c2.37,0.49,4.82,0.62,7.24,0.56
			c2.53-0.05,5.05-0.32,7.56-0.67c2.31-0.33,4.61-0.71,6.79-1.56c4.67-1.82,8.61-5.01,11.94-8.71c7.06-7.83,12.56-17.39,16.33-27.2
			c3.86-10.03,5.69-21.02,4.29-31.73c-0.35-2.68-1.05-5.2-2.79-7.33c-1.51-1.85-3.64-3.02-5.84-3.85c-2.16-0.81-4.46-1.16-6.74-1.46
			c-2.97-0.39-5.95-0.71-8.93-0.96c-24.26-2.06-48.67,0-72.92-2.3C121.39,242.12,118.14,241.19,116.45,243.95
			c-1.69,2.75,2.64,5.27,4.32,2.52c-0.09,0.14-0.59,0.4-0.62,0.49c0-0.02,1.09,0.12,1.22,0.14c0.65,0.07,1.3,0.14,1.95,0.2
			c1.46,0.14,2.92,0.27,4.39,0.38c2.85,0.22,5.7,0.39,8.55,0.51c5.71,0.25,11.43,0.34,17.14,0.38c11.35,0.08,22.71-0.05,34.06,0.47
			c5.62,0.26,11.23,0.68,16.82,1.37c3.47,0.43,8.13,0.87,10.49,3.82c1.39,1.73,1.58,4.23,1.77,6.35c0.22,2.49,0.27,4.99,0.16,7.48
			c-0.22,4.91-1.1,9.76-2.46,14.48c-2.77,9.57-7.54,18.49-13.41,26.52c-2.55,3.49-5.46,6.96-9,9.49c-3.57,2.55-7.4,3.61-11.7,4.15
			c-4.23,0.53-8.8,0.88-12.96-0.27c-4.89-1.36-9.97-2.16-14.73-3.95c-8.63-3.25-15.26-10.61-21.03-17.53
			c-2.62-3.15-4.97-6.44-6.57-10.22c-1.35-3.2-2.13-6.57-2.68-10c-1.49-9.32-3.03-18.82-2.28-28.28c0.08-1.01,0.18-2.01,0.34-3.01
			c0.08-0.52,0.18-1.05,0.28-1.57c0.06-0.32,0.13-0.64,0.21-0.96c0.02-0.11,0.29-0.83,0.08-0.44
			C122.24,243.62,117.93,241.09,116.45,243.95z"/>
	</g>
</g>
<g>
	<path class="st0" d="M257.31,237.36c8.52,0.66,17.08,0.64,25.6-0.03c6.1-0.48,12.17-1.31,18.28-1.71
		c5.42-0.35,10.86-0.37,16.29-0.39c17.32-0.06,34.65-0.12,51.97-0.19c1.04,0,2.18,0.03,2.95,0.72c0.66,0.59,0.89,1.52,1.06,2.39
		c1.01,4.92,1.64,9.93,1.88,14.95c0.11,2.23,0.02,4.76-1.65,6.25c-2.58,2.31-7.56,0.82-9.37,3.77c-0.52,0.84-0.62,1.87-0.71,2.85
		c-0.48,5.23-0.96,10.46-1.45,15.69c-0.39,4.28-0.79,8.58-1.88,12.74c-2.41,9.22-8.16,17.34-15.28,23.69
		c-7.11,6.35-15.55,11.04-24.24,14.97c-10.05,4.55-20.7,8.19-31.72,8.73c-11.02,0.54-22.51-2.28-30.92-9.42
		c-7.92-6.73-12.47-16.6-15.68-26.48c-6.32-19.42-8.42-40.21-6.12-60.51c0.22-1.93,0.54-3.99,1.88-5.39
		c1.18-1.24,2.88-2.07,4.59-2.13c6.68-0.25,3.59-0.21,10.35-0.34L257.31,237.36z"/>
	<g>
		<path class="st1" d="M257.31,239.86c7.7,0.58,15.43,0.64,23.14,0.15c7.75-0.5,15.44-1.65,23.2-2.02
			c7.76-0.37,15.55-0.26,23.32-0.29c7.83-0.03,15.66-0.06,23.49-0.08c3.83-0.01,7.66-0.03,11.49-0.04c2-0.01,4-0.01,6-0.02
			c0.73,0,1.48-0.06,2.2,0c0.17,0.02,0.55,0.01,0.71,0.13c-0.25-0.18-0.02,0.09,0.02,0.38c0.54,3.57,1.32,7.06,1.66,10.66
			c0.16,1.75,0.32,3.51,0.34,5.26c0.01,1.07,0.05,2.47-0.69,3.34c-0.51,0.6-1.46,0.79-2.42,0.97c-1.2,0.23-2.44,0.32-3.62,0.68
			c-1.21,0.37-2.37,0.96-3.24,1.9c-1.44,1.55-1.65,3.56-1.83,5.58c-0.69,7.36-1.05,14.82-2.16,22.13c-1,6.6-3.34,12.64-7.11,18.14
			c-3.62,5.29-8.35,9.84-13.53,13.59c-5.59,4.05-11.7,7.33-17.96,10.2c-6.48,2.98-13.19,5.53-20.14,7.15
			c-12.45,2.9-26.26,2.35-37.24-4.83c-10.71-7.01-15.78-19.64-19.26-31.43c-4.11-13.94-6.03-28.46-5.73-42.98
			c0.08-3.74,0.3-7.48,0.68-11.2c0.26-2.61,0.32-5.76,3.27-6.71c1.2-0.38,2.59-0.24,3.84-0.29c0.76-0.03,1.51-0.07,2.27-0.1
			c1.76-0.07,3.53-0.08,5.3-0.13C254.63,239.96,255.97,239.91,257.31,239.86c3.21-0.11,3.22-5.11,0-5
			c-3.28,0.11-6.57,0.14-9.85,0.29c-2.51,0.11-5.28-0.12-7.64,0.83c-3.81,1.52-5.39,4.74-5.89,8.62
			c-1.95,15.13-1.11,30.73,1.86,45.66c1.46,7.35,3.45,14.66,6.15,21.66c2.44,6.34,5.53,12.41,9.91,17.64
			c8.79,10.51,22.56,15.13,36,14.77c15.04-0.4,29.82-6.33,42.89-13.41c12.15-6.58,23.58-15.9,29.4-28.75
			c3.18-7.01,3.98-14.4,4.68-21.98c0.38-4.08,0.75-8.17,1.13-12.25c0.08-0.85,0.11-1.73,0.25-2.57c0.06-0.35,0.14-0.68,0.31-0.98
			c-0.13,0.23,0.31-0.33,0.06-0.12c0.79-0.67,2.15-0.75,3.31-0.93c2.84-0.45,5.62-1.34,7.01-4.09c1.6-3.15,0.98-7.13,0.67-10.51
			c-0.36-3.87-0.82-7.84-1.75-11.62c-0.45-1.85-1.45-3.43-3.29-4.13c-1.73-0.66-3.74-0.44-5.55-0.43
			c-16.32,0.06-32.65,0.12-48.97,0.18c-8.27,0.03-16.47,0.25-24.7,1.09c-8.04,0.82-16.06,1.56-24.15,1.52
			c-3.94-0.02-7.88-0.19-11.81-0.48c-1.35-0.1-2.5,1.22-2.5,2.5C254.81,238.8,255.96,239.76,257.31,239.86z"/>
	</g>
</g>
<g>
	<path class="st2" d="M347.77,245.21c0.09,0.15,0.16,0.3,0.2,0.47c2.02,8.09,1.24,18.62-0.02,26.84
		c-1.58,10.32-1.61,14.22-5.3,21.76c-2.2,4.49-7.8,10.79-11.23,14.43c-4.3,4.55-9.31,9-15.06,11.49
		c-5.75,2.48-10.46,2.89-16.47,4.66c-5.04,1.48-13.07,0.64-18.22-0.37c-7.67-1.51-13.52-7.67-18.14-13.97
		c-10.87-14.82-18.16-33.15-16.02-51.41c0.22-1.92,0.57-3.89,1.57-5.54c2.29-3.78,7.19-4.87,11.57-5.45
		c28.33-3.72,57.2-0.38,85.57-3.64C346.84,244.39,347.44,244.68,347.77,245.21L347.77,245.21z"/>
	<g>
		<path class="st1" d="M345.61,246.47c-0.18-0.35,0.03,0.19,0.04,0.25c0.06,0.32,0.14,0.63,0.21,0.95c0.11,0.52,0.2,1.04,0.29,1.56
			c0.18,1.13,0.3,2.27,0.39,3.42c0.19,2.49,0.21,4.99,0.12,7.48c-0.17,4.84-0.82,9.6-1.51,14.38c-1.09,7.52-2.08,14.99-6.39,21.46
			c-2.34,3.52-5.17,6.72-8.03,9.81c-3.18,3.44-6.55,6.8-10.47,9.41c-4.2,2.8-8.83,4.29-13.71,5.42c-4.5,1.04-8.86,2.53-13.51,2.53
			c-4.24,0.01-8.88-0.34-12.93-1.67c-4.11-1.35-7.53-4.25-10.42-7.38c-3.18-3.44-5.88-7.34-8.34-11.31
			c-2.62-4.23-4.96-8.68-6.8-13.32c-3.67-9.24-5.58-19.15-4.66-29.1c0.19-2.06,0.41-4.46,1.75-6.14c1.06-1.33,2.7-2.11,4.29-2.61
			c4.68-1.48,9.86-1.67,14.72-2.06c22.72-1.8,45.56-0.12,68.29-1.9c1.3-0.1,2.6-0.22,3.9-0.34c0.65-0.06,1.3-0.13,1.95-0.2
			c0.28-0.03,0.97,0.02,1.22-0.13c0.08-0.01,0.16-0.02,0.24-0.03C345.95,246.87,345.75,246.71,345.61,246.47
			c1.68,2.74,6,0.23,4.32-2.52c-1.76-2.87-5.33-1.79-8.08-1.53c-3,0.28-6.01,0.49-9.03,0.65c-6.03,0.32-12.07,0.45-18.12,0.5
			c-12.17,0.11-24.35-0.07-36.51,0.52c-5.98,0.29-11.95,0.77-17.89,1.56c-4.43,0.59-9.42,1.63-12.41,5.29
			c-1.84,2.25-2.49,4.92-2.85,7.74c-0.33,2.62-0.46,5.26-0.41,7.9c0.1,5.34,0.91,10.69,2.29,15.85
			c2.79,10.44,7.85,20.27,14.18,28.99c2.97,4.09,6.24,7.95,10.3,11c3.92,2.94,8.25,4.37,13.05,5.05c4.91,0.7,10.06,1.12,14.96,0.07
			c2.55-0.55,5.07-1.33,7.61-1.91c2.64-0.61,5.27-1.24,7.81-2.17c9.69-3.52,17.06-11.07,23.54-18.82c2.95-3.52,5.64-7.15,7.48-11.39
			c1.57-3.61,2.56-7.31,3.19-11.19c1.62-10.14,3.41-20.57,2.35-30.86c-0.24-2.33-0.39-5.14-1.48-7.25
			C348.45,241.09,344.13,243.62,345.61,246.47z"/>
	</g>
</g>
<g>
	<path class="st3" d="M217.97,243.05c-4.53-3.21-7.24-8.84-6.91-14.39c0.15-2.57,1.11-5.35,3.37-6.58c1.82-0.99,4.15-0.73,5.96,0.29
		c1.81,1.02,3.16,2.7,4.2,4.5c1.32,2.28,2.21,4.81,2.61,7.42c-1.22-3.62-1.31-7.61-0.26-11.29c0.39-1.36,0.96-2.72,1.97-3.71
		c1.01-0.99,2.54-1.55,3.89-1.09c1.67,0.57,2.51,2.4,3.03,4.08c1.3,4.14,1.84,8.52,1.61,12.85c-0.13-3.73,1.92-7.25,4.58-9.87
		c1.58-1.56,3.47-2.92,5.66-3.32c2.18-0.4,4.68,0.36,5.85,2.25c0.9,1.46,0.88,3.3,0.6,4.99c-0.63,3.87-2.57,7.62-5.72,9.96
		c-0.89,0.66-1.87,1.21-2.77,1.86c-3.32,2.42-5.4,6.27-6.35,10.26c-0.14,0.61-0.27,1.24-0.63,1.75c-0.36,0.51-1.01,0.88-1.6,0.69
		c-0.56-0.18-0.88-0.77-1.1-1.32c-1.17-2.88-1.36-6.15-0.54-9.15c-0.46,2.55-0.91,5.11-1.37,7.66c-0.1,0.59-0.22,1.2-0.57,1.69
		s-1,0.81-1.56,0.59c-0.52-0.21-0.77-0.79-0.96-1.32c-0.83-2.4-1.31-4.91-1.42-7.45c0.18,1.95,0.17,3.92-0.03,5.87
		c-0.1,0.96-0.35,2.06-1.22,2.46c-0.93,0.43-1.98-0.2-2.78-0.84c-3.12-2.52-5.69-5.72-7.46-9.32L217.97,243.05z"/>
	<g>
		<path class="st1" d="M219.23,240.9c-2.32-1.69-4.09-4.21-4.97-6.93c-0.83-2.55-1.25-5.84,0.09-8.3c1.43-2.61,4.46-1.8,6.25,0.01
			c2.42,2.43,3.64,5.97,4.18,9.28c1.61-0.44,3.21-0.89,4.82-1.33c-0.84-2.59-1.15-5.32-0.7-8.02c0.21-1.26,0.88-5.21,2.85-5.09
			c0.73,0.04,1.13,1.02,1.36,1.59c0.53,1.26,0.84,2.66,1.12,3.99c0.65,2.98,0.83,6,0.69,9.04c1.67,0,3.33,0,5,0
			c-0.05-3.43,1.95-6.4,4.42-8.64c1.59-1.44,5.32-3.55,7.01-1.04c0.82,1.22,0.4,3.1,0.08,4.41c-0.41,1.66-1.06,3.19-2,4.61
			c-1.97,2.98-5.5,4.18-7.83,6.82c-1.38,1.56-2.5,3.31-3.33,5.22c-0.42,0.97-0.81,1.95-1.1,2.96c-0.13,0.43-0.23,0.87-0.34,1.3
			c-0.05,0.18-0.17,0.42-0.14,0.6c0.02,0.13,0.27-0.08,0.06-0.04c0.44,0,0.89,0,1.33,0c0.36,0.5,0.45,0.59,0.26,0.27
			c-0.06-0.1-0.11-0.2-0.14-0.31c-0.11-0.27-0.2-0.56-0.28-0.84c-0.21-0.71-0.37-1.43-0.45-2.17c-0.15-1.49-0.02-2.95,0.35-4.4
			c-1.61-0.44-3.21-0.89-4.82-1.33c-0.26,1.44-0.51,2.87-0.77,4.31c-0.23,1.31-0.68,2.73-0.74,4.06c-0.03,0.11-0.07,0.23-0.1,0.34
			c0.67-0.02,1.34-0.04,2-0.05c0.02-0.08-0.14-0.41-0.16-0.49c-0.22-0.68-0.41-1.37-0.58-2.06c-0.34-1.41-0.52-2.82-0.6-4.27
			c-1.67,0-3.33,0-5,0c0.16,1.89,0.31,3.99-0.03,5.87c0,0.03-0.17,0.62-0.17,0.62c-0.21-0.15,0.9-0.7,0.92-0.5
			c-0.01-0.14-1.55-1.18-1.74-1.35c-2.43-2.21-4.34-4.81-5.81-7.73c-0.93-1.84-4.19-1.5-4.57,0.6c-0.03,0.15-0.06,0.31-0.08,0.46
			c-0.24,1.33,0.36,2.7,1.75,3.08c1.21,0.33,2.83-0.41,3.08-1.75c0.03-0.15,0.06-0.31,0.08-0.46c-1.52,0.2-3.05,0.4-4.57,0.6
			c1.09,2.18,2.45,4.19,4.01,6.05c1.47,1.75,3.29,3.75,5.33,4.82c2.52,1.32,5.39,0.4,6.36-2.34c0.86-2.42,0.65-5.45,0.44-7.97
			c-0.11-1.35-1.07-2.5-2.5-2.5c-1.3,0-2.57,1.15-2.5,2.5c0.13,2.43,0.5,4.87,1.22,7.21c0.66,2.14,1.77,4.27,4.35,4.08
			c2.5-0.18,3.54-2.45,3.93-4.62c0.43-2.39,0.85-4.79,1.28-7.18c0.24-1.33-0.36-2.69-1.75-3.08c-1.29-0.35-2.74,0.43-3.08,1.75
			c-0.79,3.09-0.8,6.38,0.17,9.43c0.44,1.39,1.02,2.89,2.31,3.7c1.65,1.03,3.72,0.46,4.94-0.93c0.94-1.07,1.14-2.47,1.52-3.79
			c0.35-1.23,0.8-2.4,1.41-3.52c1.21-2.23,2.82-3.87,4.93-5.24c4.94-3.21,8.09-8.31,8.49-14.24c0.2-2.92-0.89-5.82-3.44-7.41
			c-2.32-1.44-5.3-1.57-7.82-0.62c-5.88,2.23-10.67,8.84-10.58,15.16c0.05,3.23,4.85,3.21,5,0c0.2-4.09-0.24-8.22-1.31-12.18
			c-0.93-3.43-2.76-7.53-6.96-7.42c-4.21,0.12-6.5,3.99-7.36,7.65c-0.91,3.88-0.74,7.97,0.48,11.76c1,3.12,5.33,1.8,4.82-1.33
			c-1.09-6.68-5.91-15.85-14.01-14.53c-7.6,1.23-8.04,11.22-5.91,16.91c1.41,3.75,3.78,6.85,7.02,9.2c1.09,0.79,2.79,0.19,3.42-0.9
			C220.87,243.05,220.33,241.69,219.23,240.9z"/>
	</g>
</g>
<g>
	<g>
		<path class="st4" d="M185.64,260.1c-7.54,10.72-14.65,21.73-21.33,33.01c-1.65,2.78-2.12,6.52-1.26,9.63
			c0.8,2.9,3.04,6.04,5.74,7.47c2.9,1.53,6.42,2.3,9.63,1.26c3.11-1.01,5.78-2.88,7.47-5.74c6.68-11.28,13.79-22.29,21.33-33.01
			c1.77-2.52,2.05-6.76,1.26-9.63c-0.8-2.9-3.04-6.04-5.74-7.47c-2.9-1.53-6.42-2.3-9.63-1.26c-1,0.42-1.99,0.84-2.99,1.26
			C188.25,256.73,186.75,258.22,185.64,260.1L185.64,260.1z"/>
	</g>
</g>
<g>
	<g>
		<path class="st4" d="M145.4,256.85c-0.31,0.41-0.62,0.82-0.93,1.23c0.65-0.84,1.3-1.69,1.95-2.53c-2.13,2.75-4.41,5.38-6.82,7.88
			c-1.22,1.13-2.08,2.47-2.58,4.02c-0.78,1.49-1.14,3.1-1.08,4.82c-0.06,1.72,0.29,3.33,1.08,4.82c0.5,1.55,1.37,2.89,2.58,4.02
			c0.84,0.65,1.69,1.3,2.53,1.95c1.95,1.13,4.05,1.7,6.31,1.71c1.11-0.15,2.22-0.3,3.32-0.45c2.12-0.59,3.96-1.67,5.52-3.21
			c3.52-3.64,6.68-7.58,9.71-11.64c0.91-1.43,1.41-2.98,1.48-4.65c0.37-1.66,0.3-3.32-0.22-4.98c-0.39-1.63-1.13-3.04-2.24-4.25
			c-0.88-1.36-2.05-2.43-3.51-3.22c-1-0.42-1.99-0.84-2.99-1.26c-2.22-0.6-4.43-0.6-6.65,0c-1,0.42-1.99,0.84-2.99,1.26
			C148.01,253.48,146.51,254.97,145.4,256.85L145.4,256.85z"/>
	</g>
</g>
<g>
	<g>
		<path class="st4" d="M266.12,257.33c-2.99,4.01-5.89,8.1-8.7,12.24c-0.91,1.43-1.41,2.98-1.48,4.65c-0.37,1.66-0.3,3.32,0.22,4.98
			c0.39,1.63,1.13,3.04,2.24,4.25c0.88,1.36,2.05,2.43,3.51,3.22c1,0.42,1.99,0.84,2.99,1.26c2.22,0.6,4.43,0.6,6.65,0
			c1-0.42,1.99-0.84,2.99-1.26c1.88-1.11,3.37-2.61,4.48-4.48c2.81-4.15,5.71-8.23,8.7-12.24c0.91-1.43,1.41-2.98,1.48-4.65
			c0.37-1.66,0.3-3.32-0.22-4.98c-0.39-1.63-1.13-3.04-2.24-4.25c-0.88-1.36-2.05-2.43-3.51-3.22c-1-0.42-1.99-0.84-2.99-1.26
			c-2.22-0.6-4.43-0.6-6.65,0c-1,0.42-1.99,0.84-2.99,1.26C268.73,253.96,267.24,255.45,266.12,257.33L266.12,257.33z"/>
	</g>
</g>
<g>
	<g>
		<path class="st4" d="M317.63,253.54c-9.59,10.59-18.37,21.99-26.14,33.97c-1.72,2.65-2.08,6.65-1.26,9.63
			c0.8,2.9,3.04,6.04,5.74,7.47c6.22,3.29,13.3,1.38,17.1-4.48c3.68-5.68,7.6-11.22,11.73-16.58c-0.65,0.84-1.3,1.69-1.95,2.53
			c3.96-5.11,8.11-10.07,12.45-14.86c2.22-2.45,3.66-5.47,3.66-8.84c0-3.07-1.36-6.73-3.66-8.84c-2.38-2.19-5.51-3.81-8.84-3.66
			C323.25,250.02,319.86,251.08,317.63,253.54L317.63,253.54z"/>
	</g>
</g>
<g>
	<path class="st1" d="M139.77,184.05c-7.2-1.01-12.73-6.75-17.16-12.5c-4.33-5.62-8.26-11.72-10.12-18.57s-1.43-14.58,2.49-20.5
		c2.15-3.26,5.48-5.93,9.36-6.44c1.73-0.23,3.58,0.02,4.99,1.02s2.28,2.89,1.77,4.55c-2.79,0.28-5.26,2.52-5.81,5.27
		c-0.55,2.75,0.87,5.77,3.34,7.1c2.67,1.44,6.17,0.81,8.52-1.12c2.35-1.93,3.64-4.93,3.96-7.96c0.65-6.02-2.42-12.19-7.39-15.65
		s-11.6-4.22-17.37-2.37s-10.62,6.15-13.51,11.47c-1.82,3.35-2.9,7.06-3.53,10.81c-1.25,7.51-0.69,15.31,1.62,22.57
		c1.5,4.73,3.72,9.2,5.36,13.88c1.47,4.23,2.46,8.62,3.16,13.04c0.32,2.03,0.7,4.28,2.3,5.56c1.25,1,2.96,1.16,4.55,1.26
		c6.79,0.44,13.87,0.53,20.06-2.28c1.86-0.84,3.69-2.02,4.61-3.84s0.6-4.39-1.15-5.45L139.77,184.05z"/>
	<g>
		<path class="st1" d="M140.43,181.64c-4.96-0.76-8.89-3.75-12.25-7.33c-3.66-3.91-6.88-8.38-9.51-13.04
			c-4.73-8.38-7.5-20.33-0.8-28.55c1.62-1.99,3.81-3.67,6.38-4.15c1.51-0.28,5,0.08,4.43,2.38c0.8-0.61,1.61-1.22,2.41-1.84
			c-3.57,0.46-6.52,2.55-7.86,5.94c-1.28,3.24-0.28,7.07,2.1,9.54c2.5,2.58,6.46,3.28,9.81,2.15c3.66-1.23,6.19-4.14,7.54-7.69
			c2.5-6.57,0.18-14.22-4.49-19.21c-4.98-5.3-12.53-7.21-19.57-6.07c-6.79,1.1-12.71,5.49-16.56,11.07
			c-4.35,6.31-5.87,14.45-5.9,21.99c-0.02,4.02,0.45,8.07,1.36,11.99c0.92,3.94,2.43,7.68,3.97,11.41
			c1.54,3.71,2.96,7.45,3.95,11.35c0.51,2.02,0.94,4.05,1.3,6.1c0.3,1.69,0.45,3.45,1.07,5.06c0.66,1.7,1.69,3.19,3.32,4.09
			c1.71,0.94,3.69,1.08,5.6,1.2c3.85,0.24,7.73,0.34,11.57-0.13c6.18-0.77,17.01-3.71,15.52-12.03c-0.31-1.74-1.31-3.11-2.75-4.09
			c-1.39-0.95-3.22,0.05-3.67,1.49c-0.01,0.04-0.03,0.09-0.04,0.13c-0.97,3.08,3.86,4.39,4.82,1.33c0.01-0.04,0.03-0.09,0.04-0.13
			c-1.22,0.5-2.45,1-3.67,1.49c1.47,1-0.53,3.29-1.6,3.97c-2.49,1.6-5.54,2.38-8.45,2.8c-3.01,0.44-6.08,0.42-9.11,0.3
			c-1.43-0.06-2.91-0.06-4.32-0.27c-1.12-0.17-1.99-0.52-2.48-1.59c-0.46-1.01-0.58-2.21-0.76-3.3c-0.28-1.74-0.59-3.47-0.97-5.19
			c-0.73-3.34-1.69-6.62-2.91-9.81c-2.37-6.19-5.18-12.11-6.26-18.71c-1.81-11.03,0.04-25.27,9.85-32.2
			c4.32-3.05,9.67-4.43,14.89-3.27c5.08,1.13,9.5,4.58,11.32,9.54c1.71,4.67,1.19,12.9-5.05,13.86c-2.41,0.37-4.67-1.08-5.02-3.57
			c-0.28-2.03,1.32-4.26,3.4-4.53c1.09-0.14,2.12-0.68,2.41-1.84c0.82-3.26-0.94-6.57-3.96-7.96c-3.11-1.43-6.68-0.92-9.69,0.51
			c-5.65,2.67-9.22,8.75-10.37,14.7c-2.59,13.35,4.68,25.68,12.83,35.63c4.31,5.25,9.84,10.24,16.8,11.3
			c1.33,0.2,2.69-0.34,3.08-1.75C142.51,183.53,141.78,181.84,140.43,181.64z"/>
	</g>
</g>
</svg>
